<svg width="96" height="80" viewBox="0 0 60 50" fill="none" xmlns="http://www.w3.org/2000/svg">
<path d="M49.849 16.183C47.092 16.183 44.211 15.281 44.211 15.281C44.211 15.281 40.106 14.027 37.106 14.027C32.589 14.027 29.5 17.698 29.5 17.698V14.72C29.5 14.72 32.462 11.269 37.096 11.269C38.779 11.269 40.931 11.359 44.499 12.421C48.069 13.485 49.928 13.353 49.928 13.353C53.974 13.353 57.918 11.987 58.999 11.581V7.498C57.846 7.856 53.494 9.136 49.85 9.136C47.093 9.136 44.212 8.234 44.212 8.234C44.212 8.234 40.107 6.981 37.107 6.981C32.59 6.981 29.501 10.651 29.501 10.651V7.672C29.501 7.672 32.463 4.222 37.097 4.222C38.781 4.222 40.932 4.31 44.501 5.374C48.07 6.437 49.93 6.306 49.93 6.306C53.975 6.306 57.92 4.939 59.001 4.533V0.021C59.001 0.021 54.07 2.019 49.782 2.019C45.491 2.02 42.876 0 38.074 0C33.273 0 29.5 3.196 29.5 3.196C29.5 3.196 25.725 0 20.924 0C16.122 0 13.507 2.02 9.22 2.02C4.934 2.02 0 0.021 0 0.021V46.869C0 46.869 4.458 48.703 8.918 48.703C12.519 48.703 17.183 46.119 20.434 46.327C23.331 46.514 25.039 47.82 26.338 49.46C26.627 49.973 27.215 50 27.215 50H31.787C31.787 50 32.367 49.973 32.664 49.46C33.963 47.82 35.67 46.514 38.565 46.327C41.817 46.119 45.959 48.656 50.084 48.703C54.668 48.756 59 46.869 59 46.869V42.732C57.847 43.091 53.494 44.371 49.85 44.371C47.093 44.371 44.212 43.471 44.212 43.471C44.212 43.471 40.108 42.216 37.107 42.216C32.59 42.216 29.501 45.887 29.501 45.887V42.908C29.501 42.908 32.463 39.457 37.097 39.457C38.781 39.457 40.932 39.547 44.501 40.61L49.93 41.541C53.975 41.541 57.92 40.176 59.001 39.77V35.684C57.848 36.044 53.495 37.324 49.851 37.324C47.094 37.324 44.214 36.423 44.214 36.423C44.214 36.423 40.109 35.169 37.108 35.169C32.591 35.169 29.502 38.839 29.502 38.839V35.86C29.502 35.86 32.464 32.411 37.098 32.411C38.782 32.411 40.933 32.501 44.502 33.564C48.071 34.626 49.931 34.494 49.931 34.494C53.976 34.494 57.921 33.128 59.002 32.722V28.638C57.849 28.998 53.496 30.276 49.852 30.276C47.095 30.276 44.215 29.377 44.215 29.377C44.215 29.377 40.11 28.122 37.109 28.122C32.592 28.122 29.503 31.794 29.503 31.794V28.814C29.503 28.814 32.465 25.364 37.099 25.364C38.783 25.364 40.934 25.455 44.503 26.517L49.932 27.448C53.977 27.448 57.922 26.08 59.003 25.676V21.59C57.85 21.949 53.497 23.23 49.853 23.23C47.097 23.23 44.216 22.327 44.216 22.327C44.216 22.327 40.111 21.073 37.11 21.073C32.593 21.073 29.505 24.745 29.505 24.745V21.765C29.505 21.765 32.467 18.314 37.101 18.314C38.784 18.314 40.935 18.404 44.504 19.467C48.074 20.53 49.933 20.4 49.933 20.4C53.978 20.4 57.923 19.031 59.004 18.627V14.543C57.846 14.902 53.494 16.183 49.849 16.183Z" fill="#1D1D1E"/>
</svg>
